<svg width="1440" height="870" viewBox="0 0 1440 870" fill="none" xmlns="http://www.w3.org/2000/svg">
<mask id="mask0" mask-type="alpha" maskUnits="userSpaceOnUse" x="0" y="0" width="1440" height="1024">
<rect width="1440" height="1024" fill="#C4C4C4"/>
</mask>
<g mask="url(#mask0)">
<g style="mix-blend-mode:screen" opacity="0.7">
<g opacity="0.1">
<rect x="196.876" y="913.738" width="356.548" height="161.201" rx="11" transform="rotate(-16.6809 196.876 913.738)" fill="white"/>
<line x1="373.276" y1="908.346" x2="496.9" y2="871.302" stroke="black" stroke-width="25" stroke-linecap="round"/>
</g>
<g opacity="0.1">
<rect x="1311.99" y="579.592" width="356.548" height="161.201" rx="11" transform="rotate(-16.6809 1311.99 579.592)" fill="white"/>
<ellipse cx="1416.41" cy="632.031" rx="42.8811" ry="42.8811" transform="rotate(-16.6809 1416.41 632.031)" fill="black"/>
</g>
<g opacity="0.1">
<rect x="940.287" y="690.974" width="356.548" height="161.201" rx="11" transform="rotate(-16.6809 940.287 690.974)" fill="white"/>
<line x1="1116.69" y1="685.582" x2="1240.31" y2="648.538" stroke="black" stroke-width="25" stroke-linecap="round"/>
<line x1="1254.03" y1="676.911" x2="1139.85" y2="711.127" stroke="black" stroke-width="15" stroke-linecap="round"/>
<line x1="1266.8" y1="719.509" x2="1152.61" y2="753.724" stroke="black" stroke-width="15" stroke-linecap="round"/>
<line x1="1260.41" y1="698.21" x2="1146.23" y2="732.425" stroke="black" stroke-width="15" stroke-linecap="round"/>
<ellipse cx="1044.7" cy="743.413" rx="42.8811" ry="42.8811" transform="rotate(-16.6809 1044.7 743.413)" fill="black"/>
</g>
<g opacity="0.1">
<rect x="568.582" y="802.356" width="356.548" height="161.201" rx="11" transform="rotate(-16.6809 568.582 802.356)" fill="white"/>
<line x1="744.982" y1="796.964" x2="868.605" y2="759.92" stroke="black" stroke-width="25" stroke-linecap="round"/>
<line x1="882.327" y1="788.293" x2="768.141" y2="822.508" stroke="black" stroke-width="15" stroke-linecap="round"/>
<line x1="895.091" y1="830.89" x2="780.906" y2="865.106" stroke="black" stroke-width="15" stroke-linecap="round"/>
<line x1="888.709" y1="809.592" x2="774.523" y2="843.807" stroke="black" stroke-width="15" stroke-linecap="round"/>
<ellipse cx="672.996" cy="854.795" rx="42.8811" ry="42.8811" transform="rotate(-16.6809 672.996 854.795)" fill="black"/>
</g>
</g>
<g style="mix-blend-mode:screen" opacity="0.7">
<g opacity="0.1">
<rect x="56.1199" y="754.772" width="356.548" height="161.201" rx="11" transform="rotate(-16.6809 56.1199 754.772)" fill="white"/>
<line x1="232.52" y1="749.38" x2="356.144" y2="712.336" stroke="black" stroke-width="25" stroke-linecap="round"/>
<line x1="369.865" y1="740.709" x2="255.679" y2="774.924" stroke="black" stroke-width="15" stroke-linecap="round"/>
<line x1="382.63" y1="783.306" x2="268.444" y2="817.522" stroke="black" stroke-width="15" stroke-linecap="round"/>
<line x1="376.247" y1="762.007" x2="262.062" y2="796.223" stroke="black" stroke-width="15" stroke-linecap="round"/>
<ellipse cx="160.534" cy="807.211" rx="42.8811" ry="42.8811" transform="rotate(-16.6809 160.534 807.211)" fill="black"/>
</g>
<g opacity="0.1">
<rect x="-315.585" y="866.154" width="356.548" height="161.201" rx="11" transform="rotate(-16.6809 -315.585 866.154)" fill="white"/>
<line x1="-139.185" y1="860.762" x2="-15.5618" y2="823.718" stroke="black" stroke-width="25" stroke-linecap="round"/>
<line x1="-1.84021" y1="852.09" x2="-116.026" y2="886.306" stroke="black" stroke-width="15" stroke-linecap="round"/>
<line x1="4.54204" y1="873.389" x2="-109.644" y2="907.605" stroke="black" stroke-width="15" stroke-linecap="round"/>
</g>
<g opacity="0.1">
<rect x="1171.24" y="420.626" width="356.548" height="161.201" rx="11" transform="rotate(-16.6809 1171.24 420.626)" fill="white"/>
<line x1="1347.64" y1="415.234" x2="1471.26" y2="378.19" stroke="black" stroke-width="25" stroke-linecap="round"/>
<line x1="1484.98" y1="406.563" x2="1370.8" y2="440.779" stroke="black" stroke-width="15" stroke-linecap="round"/>
<line x1="1497.75" y1="449.161" x2="1383.56" y2="483.377" stroke="black" stroke-width="15" stroke-linecap="round"/>
<line x1="1491.36" y1="427.862" x2="1377.18" y2="462.078" stroke="black" stroke-width="15" stroke-linecap="round"/>
<ellipse cx="1275.65" cy="473.065" rx="42.8811" ry="42.8811" transform="rotate(-16.6809 1275.65 473.065)" fill="black"/>
</g>
<g opacity="0.1">
<rect x="799.531" y="532.008" width="356.548" height="161.201" rx="11" transform="rotate(-16.6809 799.531 532.008)" fill="white"/>
<line x1="975.931" y1="526.616" x2="1099.55" y2="489.572" stroke="black" stroke-width="25" stroke-linecap="round"/>
<line x1="1113.28" y1="517.945" x2="999.09" y2="552.161" stroke="black" stroke-width="15" stroke-linecap="round"/>
<line x1="1126.04" y1="560.543" x2="1011.85" y2="594.759" stroke="black" stroke-width="15" stroke-linecap="round"/>
<line x1="1119.66" y1="539.244" x2="1005.47" y2="573.46" stroke="black" stroke-width="15" stroke-linecap="round"/>
<ellipse cx="903.945" cy="584.447" rx="42.8811" ry="42.8811" transform="rotate(-16.6809 903.945 584.447)" fill="black"/>
</g>
<g opacity="0.1">
<rect x="427.825" y="643.39" width="356.548" height="161.201" rx="11" transform="rotate(-16.6809 427.825 643.39)" fill="white"/>
<line x1="604.225" y1="637.998" x2="727.849" y2="600.954" stroke="black" stroke-width="25" stroke-linecap="round"/>
<line x1="741.57" y1="629.327" x2="627.385" y2="663.543" stroke="black" stroke-width="15" stroke-linecap="round"/>
<line x1="754.335" y1="671.925" x2="640.149" y2="706.14" stroke="black" stroke-width="15" stroke-linecap="round"/>
<line x1="747.953" y1="650.626" x2="633.767" y2="684.841" stroke="black" stroke-width="15" stroke-linecap="round"/>
<ellipse cx="532.239" cy="695.829" rx="42.8811" ry="42.8811" transform="rotate(-16.6809 532.239 695.829)" fill="black"/>
</g>
</g>
<g style="mix-blend-mode:screen" opacity="0.7">
<g opacity="0.1">
<rect x="-84.6364" y="595.806" width="356.548" height="161.201" rx="11" transform="rotate(-16.6809 -84.6364 595.806)" fill="white"/>
<line x1="91.7637" y1="590.414" x2="215.387" y2="553.37" stroke="black" stroke-width="25" stroke-linecap="round"/>
<line x1="229.109" y1="581.743" x2="114.923" y2="615.958" stroke="black" stroke-width="15" stroke-linecap="round"/>
<line x1="241.873" y1="624.34" x2="127.688" y2="658.556" stroke="black" stroke-width="15" stroke-linecap="round"/>
<line x1="235.491" y1="603.042" x2="121.305" y2="637.257" stroke="black" stroke-width="15" stroke-linecap="round"/>
<ellipse cx="19.7778" cy="648.245" rx="42.8811" ry="42.8811" transform="rotate(-16.6809 19.7778 648.245)" fill="black"/>
</g>
<g opacity="0.1">
<rect x="1402.18" y="150.279" width="356.548" height="161.201" rx="11" transform="rotate(-16.6809 1402.18 150.279)" fill="white"/>
</g>
<g opacity="0.1">
<rect x="1030.48" y="261.66" width="356.548" height="161.201" rx="11" transform="rotate(-16.6809 1030.48 261.66)" fill="white"/>
<line x1="1206.88" y1="256.268" x2="1330.5" y2="219.224" stroke="black" stroke-width="25" stroke-linecap="round"/>
<line x1="1344.22" y1="247.597" x2="1230.04" y2="281.813" stroke="black" stroke-width="15" stroke-linecap="round"/>
<line x1="1356.99" y1="290.195" x2="1242.8" y2="324.411" stroke="black" stroke-width="15" stroke-linecap="round"/>
<line x1="1350.61" y1="268.896" x2="1236.42" y2="303.112" stroke="black" stroke-width="15" stroke-linecap="round"/>
<ellipse cx="1134.89" cy="314.099" rx="42.8811" ry="42.8811" transform="rotate(-16.6809 1134.89 314.099)" fill="black"/>
</g>
<g opacity="0.1">
<rect x="658.774" y="373.042" width="356.548" height="161.201" rx="11" transform="rotate(-16.6809 658.774 373.042)" fill="white"/>
<line x1="835.174" y1="367.65" x2="958.798" y2="330.606" stroke="black" stroke-width="25" stroke-linecap="round"/>
<line x1="972.519" y1="358.979" x2="858.334" y2="393.195" stroke="black" stroke-width="15" stroke-linecap="round"/>
<line x1="985.284" y1="401.577" x2="871.098" y2="435.793" stroke="black" stroke-width="15" stroke-linecap="round"/>
<line x1="978.902" y1="380.278" x2="864.716" y2="414.494" stroke="black" stroke-width="15" stroke-linecap="round"/>
<ellipse cx="763.188" cy="425.481" rx="42.8811" ry="42.8811" transform="rotate(-16.6809 763.188 425.481)" fill="black"/>
</g>
<g opacity="0.1">
<rect x="287.069" y="484.424" width="356.548" height="161.201" rx="11" transform="rotate(-16.6809 287.069 484.424)" fill="white"/>
<line x1="463.469" y1="479.032" x2="587.093" y2="441.988" stroke="black" stroke-width="25" stroke-linecap="round"/>
<line x1="600.814" y1="470.361" x2="486.628" y2="504.577" stroke="black" stroke-width="15" stroke-linecap="round"/>
<line x1="613.579" y1="512.959" x2="499.393" y2="547.174" stroke="black" stroke-width="15" stroke-linecap="round"/>
<line x1="607.196" y1="491.66" x2="493.011" y2="525.875" stroke="black" stroke-width="15" stroke-linecap="round"/>
<ellipse cx="391.483" cy="536.863" rx="42.8811" ry="42.8811" transform="rotate(-16.6809 391.483 536.863)" fill="black"/>
</g>
</g>
<g style="mix-blend-mode:screen" opacity="0.7">
<g opacity="0.1">
<rect x="-225.647" y="436.916" width="356.548" height="161.201" rx="11" transform="rotate(-16.6809 -225.647 436.916)" fill="white"/>
<line x1="-49.2466" y1="431.524" x2="74.3768" y2="394.48" stroke="black" stroke-width="25" stroke-linecap="round"/>
<line x1="88.0984" y1="422.853" x2="-26.0873" y2="457.069" stroke="black" stroke-width="15" stroke-linecap="round"/>
<line x1="100.863" y1="465.451" x2="-13.3228" y2="499.667" stroke="black" stroke-width="15" stroke-linecap="round"/>
<line x1="94.4806" y1="444.152" x2="-19.705" y2="478.368" stroke="black" stroke-width="15" stroke-linecap="round"/>
</g>
<g opacity="0.1">
<rect x="1260.57" y="-8.43127" width="356.548" height="161.201" rx="11" transform="rotate(-16.6809 1260.57 -8.43127)" fill="white"/>
<line x1="1436.97" y1="-13.8234" x2="1560.6" y2="-50.8672" stroke="black" stroke-width="25" stroke-linecap="round"/>
<ellipse cx="1364.99" cy="44.0078" rx="42.8811" ry="42.8811" transform="rotate(-16.6809 1364.99 44.0078)" fill="black"/>
</g>
<g opacity="0.1">
<rect x="888.707" y="102.999" width="356.548" height="161.201" rx="11" transform="rotate(-16.6809 888.707 102.999)" fill="white"/>
<line x1="1065.11" y1="97.6068" x2="1188.73" y2="60.563" stroke="black" stroke-width="25" stroke-linecap="round"/>
<line x1="1202.45" y1="88.9356" x2="1088.27" y2="123.151" stroke="black" stroke-width="15" stroke-linecap="round"/>
<line x1="1215.22" y1="131.534" x2="1101.03" y2="165.749" stroke="black" stroke-width="15" stroke-linecap="round"/>
<line x1="1208.83" y1="110.235" x2="1094.65" y2="144.45" stroke="black" stroke-width="15" stroke-linecap="round"/>
<ellipse cx="993.121" cy="155.438" rx="42.8811" ry="42.8811" transform="rotate(-16.6809 993.121 155.438)" fill="black"/>
</g>
<g opacity="0.1">
<rect x="145.805" y="325.61" width="356.548" height="161.201" rx="11" transform="rotate(-16.6809 145.805 325.61)" fill="white"/>
<line x1="322.205" y1="320.218" x2="445.828" y2="283.174" stroke="black" stroke-width="25" stroke-linecap="round"/>
<line x1="459.55" y1="311.547" x2="345.364" y2="345.763" stroke="black" stroke-width="15" stroke-linecap="round"/>
<line x1="472.314" y1="354.145" x2="358.129" y2="388.361" stroke="black" stroke-width="15" stroke-linecap="round"/>
<line x1="465.932" y1="332.846" x2="351.746" y2="367.062" stroke="black" stroke-width="15" stroke-linecap="round"/>
<ellipse cx="250.219" cy="378.05" rx="42.8811" ry="42.8811" transform="rotate(-16.6809 250.219 378.05)" fill="black"/>
</g>
<g opacity="0.1">
<rect x="517.256" y="214.305" width="356.548" height="161.201" rx="11" transform="rotate(-16.6809 517.256 214.305)" fill="white"/>
<line x1="693.656" y1="208.913" x2="817.28" y2="171.869" stroke="black" stroke-width="25" stroke-linecap="round"/>
<line x1="831.001" y1="200.241" x2="716.815" y2="234.457" stroke="black" stroke-width="15" stroke-linecap="round"/>
<line x1="843.766" y1="242.839" x2="729.58" y2="277.055" stroke="black" stroke-width="15" stroke-linecap="round"/>
<line x1="837.383" y1="221.54" x2="723.198" y2="255.756" stroke="black" stroke-width="15" stroke-linecap="round"/>
<ellipse cx="621.67" cy="266.744" rx="42.8811" ry="42.8811" transform="rotate(-16.6809 621.67 266.744)" fill="black"/>
</g>
</g>
<g style="mix-blend-mode:screen" opacity="0.7">
<g style="mix-blend-mode:screen" opacity="0.1">
<rect x="-365.295" y="277.618" width="356.548" height="161.201" rx="11" transform="rotate(-16.6809 -365.295 277.618)" fill="white"/>
</g>
<g style="mix-blend-mode:screen" opacity="0.1">
<rect x="6.41061" y="166.236" width="356.548" height="161.201" rx="11" transform="rotate(-16.6809 6.41061 166.236)" fill="white"/>
<line x1="182.811" y1="160.844" x2="306.434" y2="123.8" stroke="black" stroke-width="25" stroke-linecap="round"/>
<line x1="320.156" y1="152.173" x2="205.97" y2="186.389" stroke="black" stroke-width="15" stroke-linecap="round"/>
<line x1="332.92" y1="194.771" x2="218.735" y2="228.987" stroke="black" stroke-width="15" stroke-linecap="round"/>
<line x1="326.538" y1="173.472" x2="212.352" y2="207.688" stroke="black" stroke-width="15" stroke-linecap="round"/>
<ellipse cx="110.825" cy="218.675" rx="42.8811" ry="42.8811" transform="rotate(-16.6809 110.825 218.675)" fill="black"/>
</g>
<g style="mix-blend-mode:screen" opacity="0.1">
<rect x="749.821" y="-56.5274" width="356.548" height="161.201" rx="11" transform="rotate(-16.6809 749.821 -56.5274)" fill="white"/>
<line x1="1076.33" y1="-27.9929" x2="962.145" y2="6.22292" stroke="black" stroke-width="15" stroke-linecap="round"/>
<ellipse cx="854.236" cy="-4.08839" rx="42.8811" ry="42.8811" transform="rotate(-16.6809 854.236 -4.08839)" fill="black"/>
</g>
<g style="mix-blend-mode:screen" opacity="0.1">
<rect x="378.116" y="54.8544" width="356.548" height="161.201" rx="11" transform="rotate(-16.6809 378.116 54.8544)" fill="white"/>
<line x1="554.516" y1="49.4623" x2="678.14" y2="12.4184" stroke="black" stroke-width="25" stroke-linecap="round"/>
<line x1="691.861" y1="40.791" x2="577.676" y2="75.0069" stroke="black" stroke-width="15" stroke-linecap="round"/>
<line x1="704.626" y1="83.3889" x2="590.44" y2="117.605" stroke="black" stroke-width="15" stroke-linecap="round"/>
<line x1="698.244" y1="62.09" x2="584.058" y2="96.3058" stroke="black" stroke-width="15" stroke-linecap="round"/>
<ellipse cx="482.53" cy="107.293" rx="42.8811" ry="42.8811" transform="rotate(-16.6809 482.53 107.293)" fill="black"/>
</g>
</g>
</g>
</svg>
